<!--<svg width="36" height="2" viewBox="0 0 36 2" fill="none" xmlns="http://www.w3.org/2000/svg">-->
<!--<rect y="0.5" width="36" height="1" fill="#6C757D" fill-opacity="0.4"/>-->
<!--</svg>-->
<svg xmlns="http://www.w3.org/2000/svg" width="30" height="30" viewBox="0 0 30 30" fill="none">
    <path fill-rule="evenodd" clip-rule="evenodd" d="M94.5264 6.77029L0.85791 6.82354V12.4011L9.32121 7.69545V20.6344C9.32121 23.9823 10.4794 26.3251 11.472 27.317C12.0447 27.8827 12.7193 28.3087 13.4829 28.5749C14.3419 28.901 14.8892 29.0608 15.2455 29.0807C15.621 29.1074 15.9965 29.1273 16.4228 29.1273C17.7972 29.1273 18.9617 29.0807 19.8908 28.9742L20.0499 28.9543V24.2553L19.859 24.2686C19.2926 24.3019 18.6754 24.3152 18.0136 24.3152C15.621 24.3152 14.4565 23.137 14.4565 20.7209V7.7021L22.9197 12.4078V6.82354L11.8984 0.640241L0.953361 6.77029ZM58.6041  " fill="white"/>
</svg>